<svg width="30" height="33" viewBox="0 0 30 33" fill="none" xmlns="http://www.w3.org/2000/svg">
<path d="M29.5 16.4089C29.5 24.8147 22.9874 31.5907 15 31.5907C7.01258 31.5907 0.5 24.8147 0.5 16.4089C0.5 8.003 7.01258 1.22705 15 1.22705C22.9874 1.22705 29.5 8.003 29.5 16.4089Z" fill="white" stroke="#FED29C"/>
<g clip-path="url(#clip0_486_2354)">
<path d="M15 14.6664C14.6704 14.6665 14.3481 14.7688 14.0741 14.9604C13.8001 15.1519 13.5865 15.4241 13.4605 15.7426C13.3344 16.061 13.3015 16.4114 13.3659 16.7494C13.4302 17.0874 13.589 17.3978 13.8222 17.6415C14.0553 17.8851 14.3523 18.051 14.6757 18.1182C14.999 18.1854 15.3341 18.1508 15.6387 18.0189C15.9432 17.887 16.2035 17.6637 16.3866 17.3771C16.5698 17.0905 16.6675 16.7536 16.6675 16.409C16.6672 15.9468 16.4914 15.5037 16.1787 15.1769C15.866 14.8502 15.4421 14.6665 15 14.6664ZM18.8972 13.3269C18.8123 13.102 18.6842 12.8978 18.5207 12.7269C18.3572 12.556 18.1619 12.4221 17.9469 12.3334C17.2906 12.0625 15.7281 12.1233 15 12.1233C14.2719 12.1233 12.7109 12.0602 12.0528 12.3334C11.8378 12.4221 11.6424 12.556 11.479 12.7269C11.3155 12.8978 11.1874 13.102 11.1025 13.3269C10.8438 14.013 10.9016 15.6481 10.9016 16.4087C10.9016 17.1692 10.8438 18.8024 11.1037 19.4908C11.1886 19.7156 11.3167 19.9198 11.4802 20.0907C11.6437 20.2616 11.839 20.3956 12.0541 20.4843C12.7103 20.7552 14.2728 20.6944 15.0012 20.6944C15.7297 20.6944 17.29 20.7574 17.9481 20.4843C18.1632 20.3956 18.3585 20.2616 18.522 20.0907C18.6854 19.9198 18.8136 19.7156 18.8984 19.4908C19.1594 18.8047 19.0994 17.1696 19.0994 16.409C19.0994 15.6484 19.1594 14.0156 18.8984 13.3272L18.8972 13.3269ZM15 19.088C14.4932 19.088 13.9978 18.9309 13.5764 18.6365C13.155 18.3421 12.8265 17.9237 12.6326 17.4342C12.4386 16.9447 12.3879 16.406 12.4867 15.8864C12.5856 15.3667 12.8297 14.8893 13.188 14.5147C13.5464 14.14 14.003 13.8849 14.5001 13.7815C14.9972 13.6781 15.5124 13.7312 15.9806 13.934C16.4489 14.1367 16.8491 14.4801 17.1306 14.9206C17.4122 15.3612 17.5625 15.8792 17.5625 16.409C17.5629 16.7609 17.4969 17.1095 17.3683 17.4347C17.2396 17.7599 17.0509 18.0554 16.8129 18.3043C16.5748 18.5531 16.2922 18.7505 15.9811 18.8849C15.67 19.0194 15.3366 19.0884 15 19.088ZM17.6681 14.243C17.5498 14.243 17.4341 14.2064 17.3357 14.1377C17.2373 14.0691 17.1606 13.9714 17.1153 13.8572C17.07 13.7429 17.0581 13.6172 17.0811 13.4958C17.1042 13.3745 17.1611 13.2631 17.2448 13.1756C17.3284 13.0881 17.435 13.0285 17.551 13.0044C17.667 12.9802 17.7873 12.9926 17.8966 13.0399C18.0059 13.0872 18.0994 13.1674 18.1651 13.2702C18.2309 13.373 18.2659 13.4939 18.2659 13.6176C18.2663 13.6998 18.2511 13.7812 18.2213 13.8572C18.1914 13.9332 18.1475 14.0022 18.0921 14.0605C18.0367 14.1187 17.9708 14.1649 17.8983 14.1964C17.8257 14.228 17.7479 14.2442 17.6694 14.2443L17.6681 14.243ZM20.5 9.09082H9.5C9.10218 9.09082 8.72064 9.25604 8.43934 9.55013C8.15804 9.84422 8 10.2431 8 10.659V22.159C8 22.5749 8.15804 22.9738 8.43934 23.2679C8.72064 23.562 9.10218 23.7272 9.5 23.7272H20.5C20.8978 23.7272 21.2794 23.562 21.5607 23.2679C21.842 22.9738 22 22.5749 22 22.159V10.659C22 10.2431 21.842 9.84422 21.5607 9.55013C21.2794 9.25604 20.8978 9.09082 20.5 9.09082ZM19.965 18.5653C19.9247 19.4026 19.7419 20.1445 19.1572 20.7542C18.5725 21.3638 17.8634 21.5588 17.0634 21.5987C16.2381 21.6474 13.7638 21.6474 12.9384 21.5987C12.1375 21.5566 11.4303 21.3651 10.8447 20.7542C10.2591 20.1432 10.075 19.401 10.0369 18.5653C9.99031 17.7021 9.99031 15.1149 10.0369 14.2528C10.0772 13.4154 10.2578 12.6735 10.8447 12.0638C11.4316 11.4542 12.1406 11.2614 12.9384 11.2216C13.7638 11.1729 16.2381 11.1729 17.0634 11.2216C17.8644 11.2637 18.5737 11.4552 19.1572 12.0661C19.7406 12.6771 19.9269 13.4193 19.965 14.2567C20.0116 15.1166 20.0116 17.7014 19.965 18.5653Z" fill="#383838"/>
</g>
<defs>
<clipPath id="clip0_486_2354">
<rect width="14" height="14.6364" fill="white" transform="translate(8 9.09082)"/>
</clipPath>
</defs>
</svg>
