<svg width="30" height="33" viewBox="0 0 30 33" fill="none" xmlns="http://www.w3.org/2000/svg">
<path d="M29.5 16.4089C29.5 24.8147 22.9874 31.5907 15 31.5907C7.01258 31.5907 0.5 24.8147 0.5 16.4089C0.5 8.003 7.01258 1.22705 15 1.22705C22.9874 1.22705 29.5 8.003 29.5 16.4089Z" fill="white" stroke="#FED29C"/>
<g clip-path="url(#clip0_486_2346)">
<path d="M11.1337 23.7282H8.23125V13.9562H11.1337V23.7282ZM9.68094 12.6232C8.75281 12.6232 8 11.8195 8 10.8492C8 10.3831 8.1771 9.9361 8.49234 9.60652C8.80757 9.27695 9.23513 9.0918 9.68094 9.0918C10.1267 9.0918 10.5543 9.27695 10.8695 9.60652C11.1848 9.9361 11.3619 10.3831 11.3619 10.8492C11.3619 11.8195 10.6088 12.6232 9.68094 12.6232ZM21.9969 23.7282H19.1006V18.9712C19.1006 17.8375 19.0787 16.3837 17.5916 16.3837C16.0825 16.3837 15.8513 17.6154 15.8513 18.8896V23.7282H12.9519V13.9562H15.7356V15.2892H15.7762C16.1637 14.5214 17.1103 13.7112 18.5225 13.7112C21.46 13.7112 22 15.7335 22 18.3603V23.7282H21.9969Z" fill="#383838"/>
</g>
<defs>
<clipPath id="clip0_486_2346">
<rect width="14" height="14.6364" fill="white" transform="translate(8 9.09082)"/>
</clipPath>
</defs>
</svg>
