<svg width="30" height="33" viewBox="0 0 30 33" fill="none" xmlns="http://www.w3.org/2000/svg">
<path d="M29.5 16.4089C29.5 24.8147 22.9874 31.5907 15 31.5907C7.01258 31.5907 0.5 24.8147 0.5 16.4089C0.5 8.003 7.01258 1.22705 15 1.22705C22.9874 1.22705 29.5 8.003 29.5 16.4089Z" fill="white" stroke="#FED29C"/>
<g clip-path="url(#clip0_486_2350)">
<path d="M21.5609 14.7589C21.5698 14.8889 21.5698 15.019 21.5698 15.149C21.5698 19.1145 18.6827 23.6838 13.4061 23.6838C11.7804 23.6838 10.2703 23.1915 9 22.3372C9.23097 22.365 9.45303 22.3743 9.69289 22.3743C11.0342 22.3743 12.269 21.9007 13.2551 21.0927C11.9936 21.0648 10.9365 20.2011 10.5723 19.0124C10.75 19.0402 10.9277 19.0588 11.1142 19.0588C11.3718 19.0588 11.6295 19.0217 11.8693 18.9567C10.5546 18.6781 9.5685 17.4708 9.5685 16.0127V15.9756C9.95047 16.1984 10.3947 16.3377 10.8654 16.3563C10.0926 15.8176 9.58628 14.8982 9.58628 13.8581C9.58628 13.3009 9.72838 12.7901 9.97713 12.3443C11.3896 14.1646 13.5127 15.3533 15.8934 15.4833C15.849 15.2604 15.8223 15.0283 15.8223 14.7961C15.8223 13.143 17.1015 11.7964 18.6916 11.7964C19.5177 11.7964 20.2639 12.1586 20.788 12.7437C21.4365 12.6137 22.0583 12.3629 22.6091 12.0193C22.3959 12.7158 21.9428 13.3009 21.3477 13.6724C21.9251 13.6074 22.4847 13.4402 22.9999 13.208C22.6091 13.8024 22.1205 14.3317 21.5609 14.7589Z" fill="#383838"/>
</g>
<defs>
<clipPath id="clip0_486_2350">
<rect width="14" height="14.6364" fill="white" transform="translate(9 9.09082)"/>
</clipPath>
</defs>
</svg>
